<svg width="24" height="24" viewBox="0 0 24 24" fill="none" xmlns="http://www.w3.org/2000/svg">
<path d="M13 15.5C13 17.78 14.7 20.41 15.91 22H6C4.89 22 4 21.11 4 20V4C4 3.46957 4.21071 2.96086 4.58579 2.58579C4.96086 2.21071 5.46957 2 6 2H7V9L9.5 7.5L12 9V2H18C18.5304 2 19.0391 2.21071 19.4142 2.58579C19.7893 2.96086 20 3.46957 20 4V10.22C19.5 10.08 19 10 18.5 10C15.5 10 13 12.5 13 15.5Z" fill="#3F4D70" fill-opacity="0.4"/>
<path fill-rule="evenodd" clip-rule="evenodd" d="M22 15.5C22 18.1 18.5 22 18.5 22C18.5 22 15 18.1 15 15.5C15 13.6 16.6 12 18.5 12C20.4 12 22 13.6 22 15.5ZM18.5 14.4C19.1 14.4 19.7 15 19.7 15.6C19.8 16.2 19.2 16.8 18.5 16.8C17.8 16.8 17.3 16.2 17.3 15.6C17.3 14.9 17.9 14.4 18.5 14.4Z" fill="#3F4D70"/>
</svg>
