<svg width="20" height="20" viewBox="0 0 20 20" fill="none" xmlns="http://www.w3.org/2000/svg">
<g clip-path="url(#clip0_5635_34275)">
<path d="M18.809 6.3493L7.29397 6.3493C6.65812 6.3493 6.14247 6.86495 6.14247 7.5008L6.14247 8.6523H9.21313C10.3646 8.6523 11.9 9.8038 11.9 11.3391V11.723V15.5613L18.809 15.5613C19.4448 15.5613 19.9605 15.0456 19.9605 14.4098V7.5008C19.9605 6.86495 19.4448 6.3493 18.809 6.3493ZM17.6575 10.9553L15.3545 10.9553V8.6523L17.6575 8.6523V10.9553ZM4.99097 7.5008C4.99097 6.23091 6.02408 5.1978 7.29397 5.1978L15.3545 5.1978V1.7433C15.3545 1.10745 14.8388 0.591797 14.203 0.591797L2.68797 0.591797C2.05212 0.591797 1.53647 1.10745 1.53647 1.7433L1.53647 8.6523H4.99097V7.5008Z" fill="#3F4D70"/>
<path opacity="0.4" d="M11.0877 16.5948C11.0877 18.1416 9.8459 19.3945 8.29916 19.4H8.29362H2.79965C1.25846 19.4 0 18.1526 0 16.6059L0 16.6004C0 16.6004 0.00332632 14.1466 0.00776141 12.9126C0.00831579 12.6808 0.274421 12.5511 0.455705 12.6953C1.77293 13.7403 4.12851 15.6457 4.1579 15.6707C4.55151 15.9861 5.05046 16.1641 5.56049 16.1641C6.07053 16.1641 6.56948 15.9861 6.96309 15.6646C6.99247 15.6452 9.29539 13.7968 10.6326 12.7346C10.8144 12.5899 11.0816 12.7197 11.0822 12.9508C11.0877 14.1755 11.0877 16.5948 11.0877 16.5948Z" fill="#3F4D70"/>
<path d="M10.7999 10.9024C10.3198 9.99759 9.37516 9.41992 8.33513 9.41992L2.80235 9.41992C1.76233 9.41992 0.817652 9.99759 0.337553 10.9024C0.230002 11.1047 0.281006 11.3569 0.460073 11.5L4.57639 14.7925C4.86467 15.0253 5.21393 15.1412 5.5632 15.1412C5.56541 15.1412 5.56708 15.1412 5.56874 15.1412C5.5704 15.1412 5.57262 15.1412 5.57429 15.1412C5.92355 15.1412 6.27281 15.0253 6.56109 14.7925L10.6774 11.5C10.8565 11.3569 10.9075 11.1047 10.7999 10.9024Z" fill="#3F4D70"/>
</g>
<defs>
<clipPath id="clip0_5635_34275">
<rect width="20" height="20" fill="white"/>
</clipPath>
</defs>
</svg>
