<svg width="24" height="24" viewBox="0 0 24 24" fill="none" xmlns="http://www.w3.org/2000/svg">
<path d="M16.0756 2H19.4616C20.8639 2 22.0001 3.14585 22.0001 4.55996V7.97452C22.0001 9.38864 20.8639 10.5345 19.4616 10.5345H16.0756C14.6734 10.5345 13.5371 9.38864 13.5371 7.97452V4.55996C13.5371 3.14585 14.6734 2 16.0756 2Z" fill="#8A92A6"/>
<path opacity="0.4" fill-rule="evenodd" clip-rule="evenodd" d="M4.53852 2H7.92449C9.32676 2 10.463 3.14585 10.463 4.55996V7.97452C10.463 9.38864 9.32676 10.5345 7.92449 10.5345H4.53852C3.13626 10.5345 2 9.38864 2 7.97452V4.55996C2 3.14585 3.13626 2 4.53852 2ZM4.53852 13.4658H7.92449C9.32676 13.4658 10.463 14.6117 10.463 16.0258V19.4403C10.463 20.8535 9.32676 22.0003 7.92449 22.0003H4.53852C3.13626 22.0003 2 20.8535 2 19.4403V16.0258C2 14.6117 3.13626 13.4658 4.53852 13.4658ZM19.4615 13.4658H16.0755C14.6732 13.4658 13.537 14.6117 13.537 16.0258V19.4403C13.537 20.8535 14.6732 22.0003 16.0755 22.0003H19.4615C20.8637 22.0003 22 20.8535 22 19.4403V16.0258C22 14.6117 20.8637 13.4658 19.4615 13.4658Z" fill="#8A92A6"/>
</svg>
