<svg width="82" height="32" viewBox="0 0 82 32" fill="none" xmlns="http://www.w3.org/2000/svg">
<rect x="0.5" width="81.5" height="32" rx="8" fill="#CC2929" fill-opacity="0.8"/>
<g clip-path="url(#clip0_5643_67456)">
<path d="M20.77 9.33337C21.0498 9.33345 21.3226 9.42156 21.5495 9.58525C21.7765 9.74893 21.9462 9.97987 22.0347 10.2454L22.3967 11.3334H24.5833C24.7601 11.3334 24.9297 11.4036 25.0547 11.5286C25.1798 11.6537 25.25 11.8232 25.25 12C25.25 12.1769 25.1798 12.3464 25.0547 12.4714C24.9297 12.5965 24.7601 12.6667 24.5833 12.6667L24.5813 12.714L24.0033 20.8094C23.9673 21.3138 23.7415 21.7858 23.3714 22.1304C23.0013 22.475 22.5144 22.6666 22.0087 22.6667H16.4913C15.9856 22.6666 15.4987 22.475 15.1286 22.1304C14.7586 21.7858 14.5327 21.3138 14.4967 20.8094L13.9187 12.7134C13.9175 12.6978 13.9168 12.6823 13.9167 12.6667C13.7399 12.6667 13.5703 12.5965 13.4453 12.4714C13.3202 12.3464 13.25 12.1769 13.25 12C13.25 11.8232 13.3202 11.6537 13.4453 11.5286C13.5703 11.4036 13.7399 11.3334 13.9167 11.3334H16.1033L16.4653 10.2454C16.5538 9.97977 16.7236 9.74874 16.9507 9.58505C17.1778 9.42136 17.4507 9.33331 17.7307 9.33337H20.77ZM23.248 12.6667H15.252L15.8267 20.714C15.8386 20.8822 15.9139 21.0395 16.0372 21.1545C16.1605 21.2694 16.3228 21.3333 16.4913 21.3334H22.0087C22.1772 21.3333 22.3395 21.2694 22.4628 21.1545C22.5862 21.0395 22.6614 20.8822 22.6733 20.714L23.248 12.6667ZM17.9167 14.6667C18.08 14.6667 18.2376 14.7267 18.3596 14.8352C18.4816 14.9437 18.5596 15.0932 18.5787 15.2554L18.5833 15.3334V18.6667C18.5831 18.8366 18.5181 19.0001 18.4014 19.1236C18.2848 19.2472 18.1254 19.3215 17.9557 19.3315C17.7861 19.3414 17.6191 19.2863 17.4888 19.1772C17.3585 19.0681 17.2747 18.9134 17.2547 18.7447L17.25 18.6667V15.3334C17.25 15.1566 17.3202 14.987 17.4453 14.862C17.5703 14.7369 17.7399 14.6667 17.9167 14.6667ZM20.5833 14.6667C20.7601 14.6667 20.9297 14.7369 21.0547 14.862C21.1798 14.987 21.25 15.1566 21.25 15.3334V18.6667C21.25 18.8435 21.1798 19.0131 21.0547 19.1381C20.9297 19.2631 20.7601 19.3334 20.5833 19.3334C20.4065 19.3334 20.237 19.2631 20.1119 19.1381C19.9869 19.0131 19.9167 18.8435 19.9167 18.6667V15.3334C19.9167 15.1566 19.9869 14.987 20.1119 14.862C20.237 14.7369 20.4065 14.6667 20.5833 14.6667ZM20.77 10.6667H17.73L17.508 11.3334H20.992L20.77 10.6667Z" fill="white"/>
</g>
<path d="M32.44 21C32.3933 21 32.3513 20.986 32.314 20.958C32.286 20.9207 32.272 20.8787 32.272 20.832V11.368C32.272 11.3213 32.286 11.284 32.314 11.256C32.3513 11.2187 32.3933 11.2 32.44 11.2H35.856C36.5187 11.2 37.102 11.3167 37.606 11.55C38.11 11.7833 38.4973 12.1193 38.768 12.558C39.048 12.9873 39.188 13.4913 39.188 14.07V18.13C39.188 18.7087 39.048 19.2173 38.768 19.656C38.4973 20.0853 38.11 20.4167 37.606 20.65C37.102 20.8833 36.5187 21 35.856 21H32.44ZM33.896 19.53C33.896 19.5767 33.9193 19.6 33.966 19.6H35.926C36.4207 19.6 36.8127 19.446 37.102 19.138C37.4007 18.8207 37.5547 18.4007 37.564 17.878V14.336C37.564 13.804 37.4147 13.384 37.116 13.076C36.8173 12.7587 36.416 12.6 35.912 12.6H33.966C33.9193 12.6 33.896 12.6233 33.896 12.67V19.53ZM46.8063 16.618C46.8436 16.8513 46.8623 17.1127 46.8623 17.402L46.8483 17.836C46.8483 17.948 46.7923 18.004 46.6803 18.004H42.2983C42.2516 18.004 42.2283 18.0273 42.2283 18.074C42.2563 18.382 42.2983 18.592 42.3543 18.704C42.5783 19.376 43.1243 19.7167 43.9923 19.726C44.627 19.726 45.131 19.4647 45.5043 18.942C45.5416 18.886 45.5883 18.858 45.6443 18.858C45.6816 18.858 45.7143 18.872 45.7423 18.9L46.6103 19.614C46.6943 19.6793 46.7083 19.754 46.6523 19.838C46.363 20.2487 45.9756 20.566 45.4903 20.79C45.0143 21.014 44.4823 21.126 43.8943 21.126C43.1663 21.126 42.5456 20.9627 42.0323 20.636C41.5283 20.3093 41.1596 19.852 40.9263 19.264C40.7116 18.76 40.6043 18.06 40.6043 17.164C40.6043 16.6227 40.6603 16.184 40.7723 15.848C40.959 15.1947 41.309 14.6813 41.8223 14.308C42.345 13.9253 42.9703 13.734 43.6983 13.734C45.537 13.734 46.573 14.6953 46.8063 16.618ZM43.6983 15.134C43.353 15.134 43.0636 15.2227 42.8303 15.4C42.6063 15.568 42.4476 15.806 42.3543 16.114C42.2983 16.2727 42.261 16.478 42.2423 16.73C42.2236 16.7767 42.2423 16.8 42.2983 16.8H45.1403C45.187 16.8 45.2103 16.7767 45.2103 16.73C45.1916 16.4967 45.1636 16.3193 45.1263 16.198C45.0423 15.862 44.8743 15.6007 44.6223 15.414C44.3796 15.2273 44.0716 15.134 43.6983 15.134ZM48.5145 21C48.4678 21 48.4258 20.986 48.3885 20.958C48.3605 20.9207 48.3465 20.8787 48.3465 20.832V11.368C48.3465 11.3213 48.3605 11.284 48.3885 11.256C48.4258 11.2187 48.4678 11.2 48.5145 11.2H49.8025C49.8492 11.2 49.8865 11.2187 49.9145 11.256C49.9518 11.284 49.9705 11.3213 49.9705 11.368V20.832C49.9705 20.8787 49.9518 20.9207 49.9145 20.958C49.8865 20.986 49.8492 21 49.8025 21H48.5145ZM57.7301 16.618C57.7675 16.8513 57.7861 17.1127 57.7861 17.402L57.7721 17.836C57.7721 17.948 57.7161 18.004 57.6041 18.004H53.2221C53.1755 18.004 53.1521 18.0273 53.1521 18.074C53.1801 18.382 53.2221 18.592 53.2781 18.704C53.5021 19.376 54.0481 19.7167 54.9161 19.726C55.5508 19.726 56.0548 19.4647 56.4281 18.942C56.4655 18.886 56.5121 18.858 56.5681 18.858C56.6055 18.858 56.6381 18.872 56.6661 18.9L57.5341 19.614C57.6181 19.6793 57.6321 19.754 57.5761 19.838C57.2868 20.2487 56.8995 20.566 56.4141 20.79C55.9381 21.014 55.4061 21.126 54.8181 21.126C54.0901 21.126 53.4695 20.9627 52.9561 20.636C52.4521 20.3093 52.0835 19.852 51.8501 19.264C51.6355 18.76 51.5281 18.06 51.5281 17.164C51.5281 16.6227 51.5841 16.184 51.6961 15.848C51.8828 15.1947 52.2328 14.6813 52.7461 14.308C53.2688 13.9253 53.8941 13.734 54.6221 13.734C56.4608 13.734 57.4968 14.6953 57.7301 16.618ZM54.6221 15.134C54.2768 15.134 53.9875 15.2227 53.7541 15.4C53.5301 15.568 53.3715 15.806 53.2781 16.114C53.2221 16.2727 53.1848 16.478 53.1661 16.73C53.1475 16.7767 53.1661 16.8 53.2221 16.8H56.0641C56.1108 16.8 56.1341 16.7767 56.1341 16.73C56.1155 16.4967 56.0875 16.3193 56.0501 16.198C55.9661 15.862 55.7981 15.6007 55.5461 15.414C55.3035 15.2273 54.9955 15.134 54.6221 15.134ZM62.9276 14.994C62.9276 15.0407 62.909 15.0827 62.8716 15.12C62.8436 15.148 62.8063 15.162 62.7596 15.162H61.3316C61.285 15.162 61.2616 15.1853 61.2616 15.232V18.606C61.2616 18.9607 61.3363 19.2173 61.4856 19.376C61.6443 19.5347 61.8916 19.614 62.2276 19.614H62.6476C62.6943 19.614 62.7316 19.6327 62.7596 19.67C62.797 19.698 62.8156 19.7353 62.8156 19.782V20.832C62.8156 20.9347 62.7596 20.9953 62.6476 21.014L61.9196 21.028C61.1823 21.028 60.6316 20.902 60.2676 20.65C59.9036 20.398 59.717 19.922 59.7076 19.222V15.232C59.7076 15.1853 59.6843 15.162 59.6376 15.162H58.8396C58.793 15.162 58.751 15.148 58.7136 15.12C58.6856 15.0827 58.6716 15.0407 58.6716 14.994V14.014C58.6716 13.9673 58.6856 13.93 58.7136 13.902C58.751 13.8647 58.793 13.846 58.8396 13.846H59.6376C59.6843 13.846 59.7076 13.8227 59.7076 13.776V12.138C59.7076 12.0913 59.7216 12.054 59.7496 12.026C59.787 11.9887 59.829 11.97 59.8756 11.97H61.0936C61.1403 11.97 61.1776 11.9887 61.2056 12.026C61.243 12.054 61.2616 12.0913 61.2616 12.138V13.776C61.2616 13.8227 61.285 13.846 61.3316 13.846H62.7596C62.8063 13.846 62.8436 13.8647 62.8716 13.902C62.909 13.93 62.9276 13.9673 62.9276 14.014V14.994ZM70.2672 16.618C70.3046 16.8513 70.3232 17.1127 70.3232 17.402L70.3092 17.836C70.3092 17.948 70.2532 18.004 70.1412 18.004H65.7592C65.7126 18.004 65.6892 18.0273 65.6892 18.074C65.7172 18.382 65.7592 18.592 65.8152 18.704C66.0392 19.376 66.5852 19.7167 67.4532 19.726C68.0879 19.726 68.5919 19.4647 68.9652 18.942C69.0026 18.886 69.0492 18.858 69.1052 18.858C69.1426 18.858 69.1752 18.872 69.2032 18.9L70.0712 19.614C70.1552 19.6793 70.1692 19.754 70.1132 19.838C69.8239 20.2487 69.4366 20.566 68.9512 20.79C68.4752 21.014 67.9432 21.126 67.3552 21.126C66.6272 21.126 66.0066 20.9627 65.4932 20.636C64.9892 20.3093 64.6206 19.852 64.3872 19.264C64.1726 18.76 64.0652 18.06 64.0652 17.164C64.0652 16.6227 64.1212 16.184 64.2332 15.848C64.4199 15.1947 64.7699 14.6813 65.2832 14.308C65.8059 13.9253 66.4312 13.734 67.1592 13.734C68.9979 13.734 70.0339 14.6953 70.2672 16.618ZM67.1592 15.134C66.8139 15.134 66.5246 15.2227 66.2912 15.4C66.0672 15.568 65.9086 15.806 65.8152 16.114C65.7592 16.2727 65.7219 16.478 65.7032 16.73C65.6846 16.7767 65.7032 16.8 65.7592 16.8H68.6012C68.6479 16.8 68.6712 16.7767 68.6712 16.73C68.6526 16.4967 68.6246 16.3193 68.5872 16.198C68.5032 15.862 68.3352 15.6007 68.0832 15.414C67.8406 15.2273 67.5326 15.134 67.1592 15.134Z" fill="white"/>
<defs>
<clipPath id="clip0_5643_67456">
<rect width="16" height="16" fill="white" transform="translate(11.25 8)"/>
</clipPath>
</defs>
</svg>
