<svg width="17" height="16" viewBox="0 0 17 16" fill="none" xmlns="http://www.w3.org/2000/svg">
<g clip-path="url(#clip0_5643_67457)">
<path d="M9.77 1.33337C10.0498 1.33345 10.3226 1.42156 10.5495 1.58525C10.7765 1.74893 10.9462 1.97987 11.0347 2.24537L11.3967 3.33337H13.5833C13.7601 3.33337 13.9297 3.40361 14.0547 3.52864C14.1798 3.65366 14.25 3.82323 14.25 4.00004C14.25 4.17685 14.1798 4.34642 14.0547 4.47144C13.9297 4.59647 13.7601 4.66671 13.5833 4.66671L13.5813 4.71404L13.0033 12.8094C12.9673 13.3138 12.7415 13.7858 12.3714 14.1304C12.0013 14.475 11.5144 14.6666 11.0087 14.6667H5.49133C4.98564 14.6666 4.49874 14.475 4.12864 14.1304C3.75855 13.7858 3.53274 13.3138 3.49667 12.8094L2.91867 4.71337C2.91746 4.69785 2.91679 4.68228 2.91667 4.66671C2.73986 4.66671 2.57029 4.59647 2.44526 4.47144C2.32024 4.34642 2.25 4.17685 2.25 4.00004C2.25 3.82323 2.32024 3.65366 2.44526 3.52864C2.57029 3.40361 2.73986 3.33337 2.91667 3.33337H5.10333L5.46533 2.24537C5.5538 1.97977 5.72362 1.74874 5.95073 1.58505C6.17784 1.42136 6.45071 1.33331 6.73067 1.33337H9.77ZM12.248 4.66671H4.252L4.82667 12.714C4.83863 12.8822 4.91385 13.0395 5.03717 13.1545C5.1605 13.2694 5.32277 13.3333 5.49133 13.3334H11.0087C11.1772 13.3333 11.3395 13.2694 11.4628 13.1545C11.5862 13.0395 11.6614 12.8822 11.6733 12.714L12.248 4.66671ZM6.91667 6.66671C7.07996 6.66673 7.23756 6.72668 7.35958 6.83518C7.48161 6.94369 7.55956 7.09321 7.57867 7.25537L7.58333 7.33337V10.6667C7.58315 10.8366 7.51808 11.0001 7.40143 11.1236C7.28479 11.2472 7.12536 11.3215 6.95574 11.3315C6.78611 11.3414 6.61908 11.2863 6.48878 11.1772C6.35848 11.0681 6.27474 10.9134 6.25467 10.7447L6.25 10.6667V7.33337C6.25 7.15656 6.32024 6.98699 6.44526 6.86197C6.57029 6.73695 6.73986 6.66671 6.91667 6.66671ZM9.58333 6.66671C9.76014 6.66671 9.92971 6.73695 10.0547 6.86197C10.1798 6.98699 10.25 7.15656 10.25 7.33337V10.6667C10.25 10.8435 10.1798 11.0131 10.0547 11.1381C9.92971 11.2631 9.76014 11.3334 9.58333 11.3334C9.40652 11.3334 9.23695 11.2631 9.11193 11.1381C8.98691 11.0131 8.91667 10.8435 8.91667 10.6667V7.33337C8.91667 7.15656 8.98691 6.98699 9.11193 6.86197C9.23695 6.73695 9.40652 6.66671 9.58333 6.66671ZM9.77 2.66671H6.73L6.508 3.33337H9.992L9.77 2.66671Z" fill="white"/>
</g>
<defs>
<clipPath id="clip0_5643_67457">
<rect width="16" height="16" fill="white" transform="translate(0.25)"/>
</clipPath>
</defs>
</svg>
