<svg width="24" height="24" viewBox="0 0 24 24" fill="none" xmlns="http://www.w3.org/2000/svg">
<path fill-rule="evenodd" clip-rule="evenodd" d="M1 18.875C1 17.3582 2.2332 16.125 3.75 16.125H8.11133L10.0535 18.0715C11.1277 19.1457 12.868 19.1457 13.9422 18.0715L15.8887 16.125H20.25C21.7668 16.125 23 17.3582 23 18.875V20.25C23 21.7668 21.7668 23 20.25 23H3.75C2.2332 23 1 21.7668 1 20.25V18.875ZM20.2917 18.8333C20.0983 18.6399 19.836 18.5313 19.5625 18.5313C19.289 18.5313 19.0267 18.6399 18.8333 18.8333C18.6399 19.0267 18.5313 19.289 18.5313 19.5625C18.5313 19.836 18.6399 20.0983 18.8333 20.2917C19.0267 20.4851 19.289 20.5938 19.5625 20.5938C19.836 20.5938 20.0983 20.4851 20.2917 20.2917C20.4851 20.0983 20.5938 19.836 20.5938 19.5625C20.5938 19.289 20.4851 19.0267 20.2917 18.8333Z" fill="#3F4D70"/>
<path d="M13.3743 2.375C13.3743 1.61445 12.7598 1 11.9993 1C11.2388 1 10.6243 1.61445 10.6243 2.375V12.8035L7.47041 9.64961C6.9333 9.1125 6.06104 9.1125 5.52393 9.64961C4.98682 10.1867 4.98682 11.059 5.52393 11.5961L11.0239 17.0961C11.561 17.6332 12.4333 17.6332 12.9704 17.0961L18.4704 11.5961C19.0075 11.059 19.0075 10.1867 18.4704 9.64961C17.9333 9.1125 17.061 9.1125 16.5239 9.64961L13.3743 12.8035V2.375Z" fill="#3F4D70" fill-opacity="0.4"/>
</svg>
