<svg width="17" height="16" viewBox="0 0 17 16" fill="none" xmlns="http://www.w3.org/2000/svg">
<path d="M11.232 3.60534L12.6434 5.01667M12.1394 2.36201L8.32136 6.18001C8.12409 6.37701 7.98955 6.628 7.9347 6.90134L7.58203 8.66667L9.34736 8.31334C9.6207 8.25867 9.87136 8.12467 10.0687 7.92734L13.8867 4.10934C14.0014 3.99461 14.0924 3.8584 14.1545 3.7085C14.2166 3.55859 14.2486 3.39793 14.2486 3.23567C14.2486 3.07342 14.2166 2.91275 14.1545 2.76285C14.0924 2.61294 14.0014 2.47674 13.8867 2.36201C13.772 2.24728 13.6358 2.15627 13.4859 2.09417C13.336 2.03208 13.1753 2.00012 13.013 2.00012C12.8508 2.00012 12.6901 2.03208 12.5402 2.09417C12.3903 2.15627 12.2541 2.24728 12.1394 2.36201Z" stroke="black" stroke-width="1.5" stroke-linecap="round" stroke-linejoin="round"/>
<path d="M12.916 10V12C12.916 12.3537 12.7755 12.6928 12.5255 12.9428C12.2754 13.1929 11.9363 13.3334 11.5827 13.3334H4.24935C3.89573 13.3334 3.55659 13.1929 3.30654 12.9428C3.05649 12.6928 2.91602 12.3537 2.91602 12V4.66671C2.91602 4.31309 3.05649 3.97395 3.30654 3.7239C3.55659 3.47385 3.89573 3.33337 4.24935 3.33337H6.24935" stroke="black" stroke-width="1.5" stroke-linecap="round" stroke-linejoin="round"/>
</svg>
