<svg width="82" height="32" viewBox="0 0 82 32" fill="none" xmlns="http://www.w3.org/2000/svg">
<rect width="81.5" height="32" rx="8" fill="#8A92A6" fill-opacity="0.25"/>
<path d="M25.908 12.432C25.908 12.4787 25.8893 12.5207 25.852 12.558C25.824 12.586 25.7867 12.6 25.74 12.6H20.966C20.9193 12.6 20.896 12.6233 20.896 12.67V15.288C20.896 15.3347 20.9193 15.358 20.966 15.358H24.172C24.2187 15.358 24.256 15.3767 24.284 15.414C24.3213 15.442 24.34 15.4793 24.34 15.526V16.59C24.34 16.6367 24.3213 16.6787 24.284 16.716C24.256 16.744 24.2187 16.758 24.172 16.758H20.966C20.9193 16.758 20.896 16.7813 20.896 16.828V19.53C20.896 19.5767 20.9193 19.6 20.966 19.6H25.74C25.7867 19.6 25.824 19.6187 25.852 19.656C25.8893 19.684 25.908 19.7213 25.908 19.768V20.832C25.908 20.8787 25.8893 20.9207 25.852 20.958C25.824 20.986 25.7867 21 25.74 21H19.44C19.3933 21 19.3513 20.986 19.314 20.958C19.286 20.9207 19.272 20.8787 19.272 20.832V11.368C19.272 11.3213 19.286 11.284 19.314 11.256C19.3513 11.2187 19.3933 11.2 19.44 11.2H25.74C25.7867 11.2 25.824 11.2187 25.852 11.256C25.8893 11.284 25.908 11.3213 25.908 11.368V12.432ZM31.8412 11.368C31.8412 11.3213 31.8552 11.284 31.8832 11.256C31.9205 11.2187 31.9625 11.2 32.0092 11.2H33.2972C33.3438 11.2 33.3812 11.2187 33.4092 11.256C33.4465 11.284 33.4652 11.3213 33.4652 11.368V20.832C33.4652 20.8787 33.4465 20.9207 33.4092 20.958C33.3812 20.986 33.3438 21 33.2972 21H32.0092C31.9625 21 31.9205 20.986 31.8832 20.958C31.8552 20.9207 31.8412 20.8787 31.8412 20.832V20.412C31.8412 20.384 31.8318 20.3653 31.8132 20.356C31.7945 20.3467 31.7758 20.356 31.7572 20.384C31.3465 20.8693 30.8098 21.112 30.1472 21.112C29.4845 21.112 28.9245 20.9393 28.4672 20.594C28.0098 20.2487 27.6785 19.768 27.4732 19.152C27.3052 18.6293 27.2212 18.046 27.2212 17.402C27.2212 16.7393 27.3005 16.17 27.4592 15.694C27.6645 15.078 27.9958 14.5973 28.4532 14.252C28.9105 13.9067 29.4845 13.734 30.1752 13.734C30.8192 13.734 31.3465 13.9673 31.7572 14.434C31.7758 14.4527 31.7945 14.462 31.8132 14.462C31.8318 14.4527 31.8412 14.434 31.8412 14.406V11.368ZM31.5052 19.04C31.7198 18.6573 31.8272 18.116 31.8272 17.416C31.8272 16.688 31.7105 16.1327 31.4772 15.75C31.2252 15.3393 30.8705 15.134 30.4132 15.134C29.9372 15.134 29.5638 15.33 29.2932 15.722C29.0132 16.1327 28.8732 16.702 28.8732 17.43C28.8732 18.0833 28.9852 18.62 29.2092 19.04C29.4705 19.488 29.8672 19.712 30.3992 19.712C30.8752 19.712 31.2438 19.488 31.5052 19.04ZM36.1475 12.866C35.8581 12.866 35.6201 12.7727 35.4335 12.586C35.2468 12.3993 35.1535 12.1613 35.1535 11.872C35.1535 11.5827 35.2468 11.3447 35.4335 11.158C35.6201 10.9713 35.8581 10.878 36.1475 10.878C36.4368 10.878 36.6748 10.9713 36.8615 11.158C37.0481 11.3447 37.1415 11.5827 37.1415 11.872C37.1415 12.1613 37.0481 12.3993 36.8615 12.586C36.6748 12.7727 36.4368 12.866 36.1475 12.866ZM35.4755 21C35.4288 21 35.3868 20.986 35.3495 20.958C35.3215 20.9207 35.3075 20.8787 35.3075 20.832V14C35.3075 13.9533 35.3215 13.916 35.3495 13.888C35.3868 13.8507 35.4288 13.832 35.4755 13.832H36.7635C36.8101 13.832 36.8475 13.8507 36.8755 13.888C36.9128 13.916 36.9315 13.9533 36.9315 14V20.832C36.9315 20.8787 36.9128 20.9207 36.8755 20.958C36.8475 20.986 36.8101 21 36.7635 21H35.4755ZM42.5858 14.994C42.5858 15.0407 42.5672 15.0827 42.5298 15.12C42.5018 15.148 42.4645 15.162 42.4178 15.162H40.9898C40.9432 15.162 40.9198 15.1853 40.9198 15.232V18.606C40.9198 18.9607 40.9945 19.2173 41.1438 19.376C41.3025 19.5347 41.5498 19.614 41.8858 19.614H42.3058C42.3525 19.614 42.3898 19.6327 42.4178 19.67C42.4552 19.698 42.4738 19.7353 42.4738 19.782V20.832C42.4738 20.9347 42.4178 20.9953 42.3058 21.014L41.5778 21.028C40.8405 21.028 40.2898 20.902 39.9258 20.65C39.5618 20.398 39.3752 19.922 39.3658 19.222V15.232C39.3658 15.1853 39.3425 15.162 39.2958 15.162H38.4978C38.4512 15.162 38.4092 15.148 38.3718 15.12C38.3438 15.0827 38.3298 15.0407 38.3298 14.994V14.014C38.3298 13.9673 38.3438 13.93 38.3718 13.902C38.4092 13.8647 38.4512 13.846 38.4978 13.846H39.2958C39.3425 13.846 39.3658 13.8227 39.3658 13.776V12.138C39.3658 12.0913 39.3798 12.054 39.4078 12.026C39.4452 11.9887 39.4872 11.97 39.5338 11.97H40.7518C40.7985 11.97 40.8358 11.9887 40.8638 12.026C40.9012 12.054 40.9198 12.0913 40.9198 12.138V13.776C40.9198 13.8227 40.9432 13.846 40.9898 13.846H42.4178C42.4645 13.846 42.5018 13.8647 42.5298 13.902C42.5672 13.93 42.5858 13.9673 42.5858 14.014V14.994Z" fill="black"/>
<path d="M58.232 11.6053L59.6434 13.0167M59.1394 10.362L55.3214 14.18C55.1241 14.377 54.9895 14.628 54.9347 14.9013L54.582 16.6667L56.3474 16.3133C56.6207 16.2587 56.8714 16.1247 57.0687 15.9273L60.8867 12.1093C61.0014 11.9946 61.0924 11.8584 61.1545 11.7085C61.2166 11.5586 61.2486 11.3979 61.2486 11.2357C61.2486 11.0734 61.2166 10.9128 61.1545 10.7628C61.0924 10.6129 61.0014 10.4767 60.8867 10.362C60.772 10.2473 60.6358 10.1563 60.4859 10.0942C60.336 10.0321 60.1753 10.0001 60.013 10.0001C59.8508 10.0001 59.6901 10.0321 59.5402 10.0942C59.3903 10.1563 59.2541 10.2473 59.1394 10.362Z" stroke="black" stroke-width="1.5" stroke-linecap="round" stroke-linejoin="round"/>
<path d="M59.916 18V20C59.916 20.3537 59.7755 20.6928 59.5255 20.9428C59.2754 21.1929 58.9363 21.3334 58.5827 21.3334H51.2493C50.8957 21.3334 50.5566 21.1929 50.3065 20.9428C50.0565 20.6928 49.916 20.3537 49.916 20V12.6667C49.916 12.3131 50.0565 11.9739 50.3065 11.7239C50.5566 11.4738 50.8957 11.3334 51.2493 11.3334H53.2493" stroke="black" stroke-width="1.5" stroke-linecap="round" stroke-linejoin="round"/>
</svg>
