<svg width="24" height="24" viewBox="0 0 24 24" fill="none" xmlns="http://www.w3.org/2000/svg">
<path d="M21.8409 5.61382L18.3862 2.15913C18.1778 1.94953 17.9299 1.78335 17.6568 1.67022C17.3837 1.5571 17.0909 1.49926 16.7953 1.50007H4.5C3.70435 1.50007 2.94129 1.81614 2.37868 2.37875C1.81607 2.94136 1.5 3.70442 1.5 4.50007V19.5001C1.5 20.2957 1.81607 21.0588 2.37868 21.6214C2.94129 22.184 3.70435 22.5001 4.5 22.5001H19.5C20.2956 22.5001 21.0587 22.184 21.6213 21.6214C22.1839 21.0588 22.5 20.2957 22.5 19.5001V7.20476C22.5008 6.90917 22.443 6.61635 22.3298 6.34326C22.2167 6.07018 22.0505 5.82224 21.8409 5.61382ZM5.625 5.25007H13.875C13.9745 5.25007 14.0698 5.28958 14.1402 5.3599C14.2105 5.43023 14.25 5.52561 14.25 5.62507V7.87507C14.25 7.97453 14.2105 8.06991 14.1402 8.14023C14.0698 8.21056 13.9745 8.25007 13.875 8.25007H5.625C5.52554 8.25007 5.43016 8.21056 5.35983 8.14023C5.28951 8.06991 5.25 7.97453 5.25 7.87507V5.62507C5.25 5.52561 5.28951 5.43023 5.35983 5.3599C5.43016 5.28958 5.52554 5.25007 5.625 5.25007ZM12.1758 20.2458C11.4199 20.2813 10.6711 20.0873 10.0275 19.6894C9.38395 19.2914 8.87586 18.708 8.56997 18.0159C8.26409 17.3238 8.17473 16.5554 8.31363 15.8116C8.45254 15.0678 8.81321 14.3834 9.34826 13.8483C9.8833 13.3133 10.5677 12.9526 11.3115 12.8137C12.0553 12.6748 12.8238 12.7642 13.5158 13.07C14.2079 13.3759 14.7913 13.884 15.1893 14.5276C15.5873 15.1711 15.7813 15.92 15.7458 16.6758C15.7014 17.6083 15.311 18.4908 14.6509 19.1509C13.9907 19.811 13.1083 20.2014 12.1758 20.2458Z" fill="#008AC0"/>
<path d="M12 18.75C13.2426 18.75 14.25 17.7426 14.25 16.5C14.25 15.2574 13.2426 14.25 12 14.25C10.7574 14.25 9.75 15.2574 9.75 16.5C9.75 17.7426 10.7574 18.75 12 18.75Z" fill="#008AC0"/>
</svg>
