<svg width="94" height="40" viewBox="0 0 94 40" fill="none" xmlns="http://www.w3.org/2000/svg">
<rect x="0.5" y="0.5" width="93" height="39" rx="7.5" stroke="#008AC0"/>
<path d="M21 30H27C32 30 34 28 34 23V17C34 12 32 10 27 10H21C16 10 14 12 14 17V23C14 28 16 30 21 30Z" stroke="#008AC0" stroke-width="1.5" stroke-linecap="round" stroke-linejoin="round"/>
<path d="M27.5703 26.5V22.6" stroke="#008AC0" stroke-width="1.5" stroke-miterlimit="10" stroke-linecap="round" stroke-linejoin="round"/>
<path d="M27.5703 15.45V13.5" stroke="#008AC0" stroke-width="1.5" stroke-miterlimit="10" stroke-linecap="round" stroke-linejoin="round"/>
<path d="M27.5707 20.65C29.0066 20.65 30.1707 19.486 30.1707 18.05C30.1707 16.6141 29.0066 15.45 27.5707 15.45C26.1348 15.45 24.9707 16.6141 24.9707 18.05C24.9707 19.486 26.1348 20.65 27.5707 20.65Z" stroke="#008AC0" stroke-width="1.5" stroke-miterlimit="10" stroke-linecap="round" stroke-linejoin="round"/>
<path d="M20.4297 26.5V24.55" stroke="#008AC0" stroke-width="1.5" stroke-miterlimit="10" stroke-linecap="round" stroke-linejoin="round"/>
<path d="M20.4297 17.4V13.5" stroke="#008AC0" stroke-width="1.5" stroke-miterlimit="10" stroke-linecap="round" stroke-linejoin="round"/>
<path d="M20.4301 24.55C21.866 24.55 23.0301 23.3859 23.0301 21.95C23.0301 20.514 21.866 19.35 20.4301 19.35C18.9941 19.35 17.8301 20.514 17.8301 21.95C17.8301 23.3859 18.9941 24.55 20.4301 24.55Z" stroke="#008AC0" stroke-width="1.5" stroke-miterlimit="10" stroke-linecap="round" stroke-linejoin="round"/>
<path d="M52.736 15.468C52.736 15.5747 52.6827 15.628 52.576 15.628H46.912C46.8693 15.628 46.848 15.6493 46.848 15.692V19.132C46.848 19.1747 46.8693 19.196 46.912 19.196H50.8C50.9067 19.196 50.96 19.2493 50.96 19.356V20.364C50.96 20.4707 50.9067 20.524 50.8 20.524H46.912C46.8693 20.524 46.848 20.5453 46.848 20.588V25.34C46.848 25.4467 46.7947 25.5 46.688 25.5H45.472C45.3653 25.5 45.312 25.4467 45.312 25.34V14.46C45.312 14.3533 45.3653 14.3 45.472 14.3H52.576C52.6827 14.3 52.736 14.3533 52.736 14.46V15.468ZM55.0949 16.076C54.7962 16.076 54.5509 15.98 54.3589 15.788C54.1669 15.596 54.0709 15.3507 54.0709 15.052C54.0709 14.7533 54.1669 14.508 54.3589 14.316C54.5509 14.124 54.7962 14.028 55.0949 14.028C55.3935 14.028 55.6389 14.124 55.8309 14.316C56.0229 14.508 56.1189 14.7533 56.1189 15.052C56.1189 15.3507 56.0229 15.596 55.8309 15.788C55.6389 15.98 55.3935 16.076 55.0949 16.076ZM54.4549 25.484C54.3482 25.484 54.2949 25.4307 54.2949 25.324V17.516C54.2949 17.4093 54.3482 17.356 54.4549 17.356H55.6709C55.7775 17.356 55.8309 17.4093 55.8309 17.516V25.324C55.8309 25.4307 55.7775 25.484 55.6709 25.484H54.4549ZM58.405 25.5C58.2983 25.5 58.245 25.4467 58.245 25.34V14.46C58.245 14.3533 58.2983 14.3 58.405 14.3H59.621C59.7277 14.3 59.781 14.3533 59.781 14.46V25.34C59.781 25.4467 59.7277 25.5 59.621 25.5H58.405ZM66.0266 18.46C66.0266 18.5667 65.9733 18.62 65.8666 18.62H64.1386C64.096 18.62 64.0746 18.6413 64.0746 18.684V22.924C64.0746 23.372 64.176 23.6973 64.3786 23.9C64.5813 24.092 64.896 24.188 65.3226 24.188H65.7866C65.8933 24.188 65.9466 24.2413 65.9466 24.348V25.34C65.9466 25.4467 65.8933 25.5 65.7866 25.5C65.4453 25.5213 65.2 25.532 65.0506 25.532C64.24 25.532 63.6266 25.388 63.2106 25.1C62.8053 24.8013 62.6026 24.2573 62.6026 23.468V18.684C62.6026 18.6413 62.5813 18.62 62.5386 18.62H61.5626C61.456 18.62 61.4026 18.5667 61.4026 18.46V17.516C61.4026 17.4093 61.456 17.356 61.5626 17.356H62.5386C62.5813 17.356 62.6026 17.3347 62.6026 17.292V15.404C62.6026 15.2973 62.656 15.244 62.7626 15.244H63.9146C64.0213 15.244 64.0746 15.2973 64.0746 15.404V17.292C64.0746 17.3347 64.096 17.356 64.1386 17.356H65.8666C65.9733 17.356 66.0266 17.4093 66.0266 17.516V18.46ZM74.3214 20.412C74.364 20.8493 74.38 21.34 74.3694 21.884C74.3694 21.9907 74.316 22.044 74.2094 22.044H69.1054C69.0627 22.044 69.0414 22.0653 69.0414 22.108C69.0414 22.4707 69.0734 22.748 69.1374 22.94C69.2547 23.3667 69.4894 23.7027 69.8414 23.948C70.204 24.1827 70.6574 24.3 71.2014 24.3C71.9907 24.3 72.5987 23.9747 73.0254 23.324C73.0787 23.2173 73.148 23.2013 73.2334 23.276L74.1454 23.884C74.22 23.948 74.236 24.0173 74.1934 24.092C73.8947 24.572 73.468 24.9507 72.9134 25.228C72.3694 25.5053 71.7507 25.644 71.0574 25.644C70.2787 25.644 69.6227 25.4733 69.0894 25.132C68.556 24.7907 68.156 24.3053 67.8894 23.676C67.6334 23.0467 67.5054 22.284 67.5054 21.388C67.5054 20.6093 67.564 20.0173 67.6814 19.612C67.8734 18.876 68.2574 18.2947 68.8334 17.868C69.4094 17.4413 70.108 17.228 70.9294 17.228C72.0067 17.228 72.812 17.5 73.3454 18.044C73.8787 18.5773 74.204 19.3667 74.3214 20.412ZM70.9294 18.556C70.4707 18.556 70.092 18.6733 69.7934 18.908C69.4947 19.132 69.292 19.436 69.1854 19.82C69.1107 20.0547 69.0627 20.3533 69.0414 20.716C69.0414 20.7587 69.0627 20.78 69.1054 20.78H72.7694C72.812 20.78 72.8334 20.7587 72.8334 20.716C72.812 20.364 72.78 20.1027 72.7374 19.932C72.6307 19.516 72.4174 19.1853 72.0974 18.94C71.788 18.684 71.3987 18.556 70.9294 18.556ZM79.8755 17.276C80.2168 17.276 80.5262 17.3453 80.8035 17.484C80.8782 17.516 80.9048 17.58 80.8835 17.676L80.6275 18.876C80.6168 18.972 80.5528 19.004 80.4355 18.972C80.2542 18.8973 80.0408 18.86 79.7955 18.86L79.5715 18.876C79.0702 18.8973 78.6542 19.0733 78.3235 19.404C78.0035 19.724 77.8435 20.1453 77.8435 20.668V25.34C77.8435 25.4467 77.7902 25.5 77.6835 25.5H76.4675C76.3608 25.5 76.3075 25.4467 76.3075 25.34V17.516C76.3075 17.4093 76.3608 17.356 76.4675 17.356H77.6835C77.7902 17.356 77.8435 17.4093 77.8435 17.516V18.364C77.8435 18.396 77.8488 18.4173 77.8595 18.428C77.8808 18.428 77.8968 18.4173 77.9075 18.396C78.3875 17.6493 79.0435 17.276 79.8755 17.276Z" fill="white"/>
</svg>
