<svg width="120" height="40" viewBox="0 0 120 40" fill="none" xmlns="http://www.w3.org/2000/svg">
<rect width="120" height="40" rx="8" fill="#E9ECEF"/>
<path fill-rule="evenodd" clip-rule="evenodd" d="M34.3304 16.9793H30.8015C29.1592 16.9822 27.8289 18.2793 27.8259 19.8805C27.8237 21.4853 29.1555 22.7882 30.8015 22.7903H34.3333V23.0453C34.3333 25.8446 32.6363 27.5 29.7644 27.5H22.2363C19.3637 27.5 17.6667 25.8446 17.6667 23.0453V16.9482C17.6667 14.1489 19.3637 12.5 22.2363 12.5H29.7615C32.6333 12.5 34.3304 14.1489 34.3304 16.9482V16.9793ZM21.6163 16.9728H26.3163H26.3192H26.3252C26.677 16.9713 26.9615 16.6918 26.96 16.348C26.9585 16.005 26.6711 15.7276 26.3192 15.7291H21.6163C21.2667 15.7305 20.983 16.0072 20.9815 16.3488C20.98 16.6918 21.2644 16.9713 21.6163 16.9728Z" fill="#3F4D70"/>
<path opacity="0.4" d="M29.3645 20.2472C29.5388 21.0399 30.2337 21.5976 31.0271 21.5831H33.7354C34.0655 21.5831 34.3333 21.3097 34.3333 20.9717V18.8621C34.3326 18.5249 34.0655 18.2507 33.7354 18.25H30.9634C30.0609 18.2529 29.3319 19.002 29.3333 19.9252C29.3333 20.0333 29.3439 20.1413 29.3645 20.2472Z" fill="#3F4D70"/>
<ellipse cx="31" cy="19.9173" rx="0.833333" ry="0.833333" fill="#3F4D70"/>
<path d="M51.248 16.768C51.408 17.216 51.488 17.7333 51.488 18.32V23.248C51.488 24.1227 51.184 24.8213 50.576 25.344C49.968 25.8667 49.1733 26.128 48.192 26.128C47.5627 26.128 47.0027 26.0107 46.512 25.776C46.032 25.5413 45.6587 25.216 45.392 24.8C45.1253 24.3733 44.992 23.888 44.992 23.344V23.024C44.992 22.9173 45.0453 22.864 45.152 22.864H46.368C46.4747 22.864 46.528 22.9173 46.528 23.024V23.168C46.528 23.648 46.6827 24.0373 46.992 24.336C47.3013 24.6347 47.7013 24.784 48.192 24.784C48.704 24.784 49.1253 24.6293 49.456 24.32C49.7867 24.0107 49.952 23.6 49.952 23.088V21.072C49.952 21.0507 49.9413 21.0347 49.92 21.024C49.9093 21.0133 49.8933 21.0187 49.872 21.04C49.4133 21.5627 48.7467 21.824 47.872 21.824C47.2427 21.824 46.6987 21.696 46.24 21.44C45.792 21.184 45.44 20.8107 45.184 20.32C44.8853 19.7547 44.736 19.0773 44.736 18.288C44.736 17.648 44.8373 17.0773 45.04 16.576C45.2853 15.968 45.6693 15.504 46.192 15.184C46.7147 14.8533 47.344 14.688 48.08 14.688C48.8693 14.688 49.536 14.8693 50.08 15.232C50.624 15.5947 51.0133 16.1067 51.248 16.768ZM49.696 19.568C49.8667 19.216 49.952 18.7627 49.952 18.208C49.952 17.76 49.8827 17.3813 49.744 17.072C49.6053 16.7307 49.3973 16.4747 49.12 16.304C48.8427 16.1227 48.5067 16.032 48.112 16.032C47.7173 16.032 47.3813 16.1227 47.104 16.304C46.8373 16.4747 46.64 16.7253 46.512 17.056C46.352 17.3867 46.272 17.7973 46.272 18.288C46.272 18.8213 46.3627 19.2587 46.544 19.6C46.8747 20.2187 47.3973 20.528 48.112 20.528C48.8693 20.528 49.3973 20.208 49.696 19.568ZM59.6543 16.768C59.8143 17.216 59.8943 17.7333 59.8943 18.32V23.248C59.8943 24.1227 59.5903 24.8213 58.9823 25.344C58.3743 25.8667 57.5796 26.128 56.5983 26.128C55.9689 26.128 55.4089 26.0107 54.9183 25.776C54.4383 25.5413 54.0649 25.216 53.7983 24.8C53.5316 24.3733 53.3983 23.888 53.3983 23.344V23.024C53.3983 22.9173 53.4516 22.864 53.5583 22.864H54.7743C54.8809 22.864 54.9343 22.9173 54.9343 23.024V23.168C54.9343 23.648 55.0889 24.0373 55.3983 24.336C55.7076 24.6347 56.1076 24.784 56.5983 24.784C57.1103 24.784 57.5316 24.6293 57.8623 24.32C58.1929 24.0107 58.3583 23.6 58.3583 23.088V21.072C58.3583 21.0507 58.3476 21.0347 58.3263 21.024C58.3156 21.0133 58.2996 21.0187 58.2783 21.04C57.8196 21.5627 57.1529 21.824 56.2783 21.824C55.6489 21.824 55.1049 21.696 54.6463 21.44C54.1983 21.184 53.8463 20.8107 53.5903 20.32C53.2916 19.7547 53.1423 19.0773 53.1423 18.288C53.1423 17.648 53.2436 17.0773 53.4463 16.576C53.6916 15.968 54.0756 15.504 54.5983 15.184C55.1209 14.8533 55.7503 14.688 56.4863 14.688C57.2756 14.688 57.9423 14.8693 58.4863 15.232C59.0303 15.5947 59.4196 16.1067 59.6543 16.768ZM58.1023 19.568C58.2729 19.216 58.3583 18.7627 58.3583 18.208C58.3583 17.76 58.2889 17.3813 58.1503 17.072C58.0116 16.7307 57.8036 16.4747 57.5263 16.304C57.2489 16.1227 56.9129 16.032 56.5182 16.032C56.1236 16.032 55.7876 16.1227 55.5103 16.304C55.2436 16.4747 55.0463 16.7253 54.9183 17.056C54.7583 17.3867 54.6783 17.7973 54.6783 18.288C54.6783 18.8213 54.7689 19.2587 54.9503 19.6C55.2809 20.2187 55.8036 20.528 56.5182 20.528C57.2756 20.528 57.8036 20.208 58.1023 19.568ZM68.0605 16.768C68.2205 17.216 68.3005 17.7333 68.3005 18.32V23.248C68.3005 24.1227 67.9965 24.8213 67.3885 25.344C66.7805 25.8667 65.9858 26.128 65.0045 26.128C64.3752 26.128 63.8152 26.0107 63.3245 25.776C62.8445 25.5413 62.4712 25.216 62.2045 24.8C61.9378 24.3733 61.8045 23.888 61.8045 23.344V23.024C61.8045 22.9173 61.8578 22.864 61.9645 22.864H63.1805C63.2872 22.864 63.3405 22.9173 63.3405 23.024V23.168C63.3405 23.648 63.4952 24.0373 63.8045 24.336C64.1138 24.6347 64.5138 24.784 65.0045 24.784C65.5165 24.784 65.9378 24.6293 66.2685 24.32C66.5992 24.0107 66.7645 23.6 66.7645 23.088V21.072C66.7645 21.0507 66.7538 21.0347 66.7325 21.024C66.7218 21.0133 66.7058 21.0187 66.6845 21.04C66.2258 21.5627 65.5592 21.824 64.6845 21.824C64.0552 21.824 63.5112 21.696 63.0525 21.44C62.6045 21.184 62.2525 20.8107 61.9965 20.32C61.6978 19.7547 61.5485 19.0773 61.5485 18.288C61.5485 17.648 61.6498 17.0773 61.8525 16.576C62.0978 15.968 62.4818 15.504 63.0045 15.184C63.5272 14.8533 64.1565 14.688 64.8925 14.688C65.6818 14.688 66.3485 14.8693 66.8925 15.232C67.4365 15.5947 67.8258 16.1067 68.0605 16.768ZM66.5085 19.568C66.6792 19.216 66.7645 18.7627 66.7645 18.208C66.7645 17.76 66.6952 17.3813 66.5565 17.072C66.4178 16.7307 66.2098 16.4747 65.9325 16.304C65.6552 16.1227 65.3192 16.032 64.9245 16.032C64.5298 16.032 64.1938 16.1227 63.9165 16.304C63.6498 16.4747 63.4525 16.7253 63.3245 17.056C63.1645 17.3867 63.0845 17.7973 63.0845 18.288C63.0845 18.8213 63.1752 19.2587 63.3565 19.6C63.6872 20.2187 64.2098 20.528 64.9245 20.528C65.6818 20.528 66.2098 20.208 66.5085 19.568ZM71.4588 26C71.4054 26 71.3628 25.984 71.3307 25.952C71.3094 25.9093 71.3094 25.8613 71.3307 25.808L74.9628 16.208C74.9734 16.1867 74.9734 16.1707 74.9628 16.16C74.9521 16.1387 74.9361 16.128 74.9148 16.128H71.0588C71.0161 16.128 70.9948 16.1493 70.9948 16.192V16.944C70.9948 17.0507 70.9414 17.104 70.8348 17.104H69.8748C69.7681 17.104 69.7148 17.0507 69.7148 16.944V14.96C69.7148 14.8533 69.7681 14.8 69.8748 14.8H76.4508C76.5574 14.8 76.6108 14.8533 76.6108 14.96V16.032C76.6108 16.0747 76.6001 16.1387 76.5788 16.224L72.9628 25.872C72.9308 25.9573 72.8721 26 72.7868 26H71.4588Z" fill="#12151E"/>
<path d="M84.684 25.108C84.108 25.108 83.596 24.996 83.148 24.772C82.708 24.54 82.364 24.216 82.116 23.8C81.876 23.376 81.756 22.892 81.756 22.348V19.24C81.756 18.696 81.876 18.22 82.116 17.812C82.364 17.396 82.708 17.076 83.148 16.852C83.596 16.62 84.108 16.504 84.684 16.504C85.26 16.504 85.768 16.616 86.208 16.84C86.648 17.056 86.988 17.364 87.228 17.764C87.476 18.164 87.6 18.628 87.6 19.156V19.168C87.6 19.208 87.588 19.24 87.564 19.264C87.54 19.288 87.512 19.3 87.48 19.3L86.568 19.348C86.488 19.348 86.448 19.312 86.448 19.24V19.204C86.448 18.692 86.288 18.28 85.968 17.968C85.648 17.656 85.22 17.5 84.684 17.5C84.148 17.5 83.716 17.656 83.388 17.968C83.068 18.28 82.908 18.692 82.908 19.204V22.396C82.908 22.908 83.068 23.32 83.388 23.632C83.716 23.944 84.148 24.1 84.684 24.1C85.22 24.1 85.648 23.944 85.968 23.632C86.288 23.32 86.448 22.908 86.448 22.396V22.372C86.448 22.3 86.488 22.264 86.568 22.264L87.48 22.312C87.56 22.312 87.6 22.352 87.6 22.432C87.6 22.96 87.476 23.428 87.228 23.836C86.988 24.236 86.648 24.548 86.208 24.772C85.768 24.996 85.26 25.108 84.684 25.108ZM94.0611 25C93.9971 25 93.9531 24.972 93.9291 24.916L92.2491 21.328C92.2411 21.304 92.2251 21.292 92.2011 21.292H90.4731C90.4411 21.292 90.4251 21.308 90.4251 21.34V24.88C90.4251 24.96 90.3851 25 90.3051 25H89.3931C89.3131 25 89.2731 24.96 89.2731 24.88V16.72C89.2731 16.64 89.3131 16.6 89.3931 16.6H92.6211C93.1011 16.6 93.5211 16.7 93.8811 16.9C94.2491 17.1 94.5331 17.38 94.7331 17.74C94.9331 18.1 95.0331 18.516 95.0331 18.988C95.0331 19.548 94.8851 20.024 94.5891 20.416C94.3011 20.8 93.8971 21.06 93.3771 21.196C93.3451 21.212 93.3371 21.232 93.3531 21.256L95.0931 24.856C95.1011 24.872 95.1051 24.892 95.1051 24.916C95.1051 24.972 95.0731 25 95.0091 25H94.0611ZM90.4731 17.596C90.4411 17.596 90.4251 17.612 90.4251 17.644V20.332C90.4251 20.364 90.4411 20.38 90.4731 20.38H92.4771C92.9011 20.38 93.2411 20.256 93.4971 20.008C93.7531 19.752 93.8811 19.416 93.8811 19C93.8811 18.576 93.7531 18.236 93.4971 17.98C93.2411 17.724 92.9011 17.596 92.4771 17.596H90.4731ZM96.7524 25C96.6724 25 96.6324 24.96 96.6324 24.88V16.72C96.6324 16.64 96.6724 16.6 96.7524 16.6H99.6564C100.488 16.6 101.152 16.82 101.648 17.26C102.144 17.692 102.392 18.272 102.392 19V22.6C102.392 23.328 102.144 23.912 101.648 24.352C101.152 24.784 100.488 25 99.6564 25H96.7524ZM97.7844 23.956C97.7844 23.988 97.8004 24.004 97.8324 24.004H99.7044C100.168 24.004 100.536 23.864 100.808 23.584C101.088 23.296 101.232 22.912 101.24 22.432V19.168C101.24 18.688 101.1 18.308 100.82 18.028C100.548 17.74 100.176 17.596 99.7044 17.596H97.8324C97.8004 17.596 97.7844 17.612 97.7844 17.644V23.956Z" fill="#8A92A6"/>
</svg>
