<svg width="60" height="16" viewBox="0 0 60 16" fill="none" xmlns="http://www.w3.org/2000/svg">
<path d="M7.248 4.768C7.408 5.216 7.488 5.73333 7.488 6.32V11.248C7.488 12.1227 7.184 12.8213 6.576 13.344C5.968 13.8667 5.17333 14.128 4.192 14.128C3.56267 14.128 3.00267 14.0107 2.512 13.776C2.032 13.5413 1.65867 13.216 1.392 12.8C1.12533 12.3733 0.992 11.888 0.992 11.344V11.024C0.992 10.9173 1.04533 10.864 1.152 10.864H2.368C2.47467 10.864 2.528 10.9173 2.528 11.024V11.168C2.528 11.648 2.68267 12.0373 2.992 12.336C3.30133 12.6347 3.70133 12.784 4.192 12.784C4.704 12.784 5.12533 12.6293 5.456 12.32C5.78667 12.0107 5.952 11.6 5.952 11.088V9.072C5.952 9.05067 5.94133 9.03467 5.92 9.024C5.90933 9.01333 5.89333 9.01867 5.872 9.04C5.41333 9.56267 4.74667 9.824 3.872 9.824C3.24267 9.824 2.69867 9.696 2.24 9.44C1.792 9.184 1.44 8.81067 1.184 8.32C0.885333 7.75467 0.736 7.07733 0.736 6.288C0.736 5.648 0.837333 5.07733 1.04 4.576C1.28533 3.968 1.66933 3.504 2.192 3.184C2.71467 2.85333 3.344 2.688 4.08 2.688C4.86933 2.688 5.536 2.86933 6.08 3.232C6.624 3.59467 7.01333 4.10667 7.248 4.768ZM5.696 7.568C5.86667 7.216 5.952 6.76267 5.952 6.208C5.952 5.76 5.88267 5.38133 5.744 5.072C5.60533 4.73067 5.39733 4.47467 5.12 4.304C4.84267 4.12267 4.50667 4.032 4.112 4.032C3.71733 4.032 3.38133 4.12267 3.104 4.304C2.83733 4.47467 2.64 4.72533 2.512 5.056C2.352 5.38667 2.272 5.79733 2.272 6.288C2.272 6.82133 2.36267 7.25867 2.544 7.6C2.87467 8.21867 3.39733 8.528 4.112 8.528C4.86933 8.528 5.39733 8.208 5.696 7.568ZM15.6543 4.768C15.8143 5.216 15.8943 5.73333 15.8943 6.32V11.248C15.8943 12.1227 15.5903 12.8213 14.9823 13.344C14.3743 13.8667 13.5796 14.128 12.5983 14.128C11.9689 14.128 11.4089 14.0107 10.9183 13.776C10.4383 13.5413 10.0649 13.216 9.79825 12.8C9.53158 12.3733 9.39825 11.888 9.39825 11.344V11.024C9.39825 10.9173 9.45158 10.864 9.55825 10.864H10.7743C10.8809 10.864 10.9343 10.9173 10.9343 11.024V11.168C10.9343 11.648 11.0889 12.0373 11.3983 12.336C11.7076 12.6347 12.1076 12.784 12.5983 12.784C13.1103 12.784 13.5316 12.6293 13.8623 12.32C14.1929 12.0107 14.3583 11.6 14.3583 11.088V9.072C14.3583 9.05067 14.3476 9.03467 14.3263 9.024C14.3156 9.01333 14.2996 9.01867 14.2783 9.04C13.8196 9.56267 13.1529 9.824 12.2783 9.824C11.6489 9.824 11.1049 9.696 10.6463 9.44C10.1983 9.184 9.84625 8.81067 9.59025 8.32C9.29158 7.75467 9.14225 7.07733 9.14225 6.288C9.14225 5.648 9.24358 5.07733 9.44625 4.576C9.69158 3.968 10.0756 3.504 10.5983 3.184C11.1209 2.85333 11.7503 2.688 12.4863 2.688C13.2756 2.688 13.9423 2.86933 14.4863 3.232C15.0303 3.59467 15.4196 4.10667 15.6543 4.768ZM14.1023 7.568C14.2729 7.216 14.3583 6.76267 14.3583 6.208C14.3583 5.76 14.2889 5.38133 14.1503 5.072C14.0116 4.73067 13.8036 4.47467 13.5263 4.304C13.2489 4.12267 12.9129 4.032 12.5182 4.032C12.1236 4.032 11.7876 4.12267 11.5103 4.304C11.2436 4.47467 11.0463 4.72533 10.9183 5.056C10.7583 5.38667 10.6783 5.79733 10.6783 6.288C10.6783 6.82133 10.7689 7.25867 10.9503 7.6C11.2809 8.21867 11.8036 8.528 12.5182 8.528C13.2756 8.528 13.8036 8.208 14.1023 7.568ZM24.0605 4.768C24.2205 5.216 24.3005 5.73333 24.3005 6.32V11.248C24.3005 12.1227 23.9965 12.8213 23.3885 13.344C22.7805 13.8667 21.9858 14.128 21.0045 14.128C20.3752 14.128 19.8152 14.0107 19.3245 13.776C18.8445 13.5413 18.4712 13.216 18.2045 12.8C17.9378 12.3733 17.8045 11.888 17.8045 11.344V11.024C17.8045 10.9173 17.8578 10.864 17.9645 10.864H19.1805C19.2872 10.864 19.3405 10.9173 19.3405 11.024V11.168C19.3405 11.648 19.4952 12.0373 19.8045 12.336C20.1138 12.6347 20.5138 12.784 21.0045 12.784C21.5165 12.784 21.9378 12.6293 22.2685 12.32C22.5992 12.0107 22.7645 11.6 22.7645 11.088V9.072C22.7645 9.05067 22.7538 9.03467 22.7325 9.024C22.7218 9.01333 22.7058 9.01867 22.6845 9.04C22.2258 9.56267 21.5592 9.824 20.6845 9.824C20.0552 9.824 19.5112 9.696 19.0525 9.44C18.6045 9.184 18.2525 8.81067 17.9965 8.32C17.6978 7.75467 17.5485 7.07733 17.5485 6.288C17.5485 5.648 17.6498 5.07733 17.8525 4.576C18.0978 3.968 18.4818 3.504 19.0045 3.184C19.5272 2.85333 20.1565 2.688 20.8925 2.688C21.6818 2.688 22.3485 2.86933 22.8925 3.232C23.4365 3.59467 23.8258 4.10667 24.0605 4.768ZM22.5085 7.568C22.6792 7.216 22.7645 6.76267 22.7645 6.208C22.7645 5.76 22.6952 5.38133 22.5565 5.072C22.4178 4.73067 22.2098 4.47467 21.9325 4.304C21.6552 4.12267 21.3192 4.032 20.9245 4.032C20.5298 4.032 20.1938 4.12267 19.9165 4.304C19.6498 4.47467 19.4525 4.72533 19.3245 5.056C19.1645 5.38667 19.0845 5.79733 19.0845 6.288C19.0845 6.82133 19.1752 7.25867 19.3565 7.6C19.6872 8.21867 20.2098 8.528 20.9245 8.528C21.6818 8.528 22.2098 8.208 22.5085 7.568ZM27.4588 14C27.4054 14 27.3628 13.984 27.3307 13.952C27.3094 13.9093 27.3094 13.8613 27.3307 13.808L30.9628 4.208C30.9734 4.18667 30.9734 4.17067 30.9628 4.16C30.9521 4.13867 30.9361 4.128 30.9148 4.128H27.0588C27.0161 4.128 26.9948 4.14933 26.9948 4.192V4.944C26.9948 5.05067 26.9414 5.104 26.8348 5.104H25.8748C25.7681 5.104 25.7148 5.05067 25.7148 4.944V2.96C25.7148 2.85333 25.7681 2.8 25.8748 2.8H32.4508C32.5574 2.8 32.6108 2.85333 32.6108 2.96V4.032C32.6108 4.07467 32.6001 4.13867 32.5788 4.224L28.9628 13.872C28.9308 13.9573 28.8721 14 28.7868 14H27.4588Z" fill="#12151E"/>
<path d="M40.684 13.108C40.108 13.108 39.596 12.996 39.148 12.772C38.708 12.54 38.364 12.216 38.116 11.8C37.876 11.376 37.756 10.892 37.756 10.348V7.24C37.756 6.696 37.876 6.22 38.116 5.812C38.364 5.396 38.708 5.076 39.148 4.852C39.596 4.62 40.108 4.504 40.684 4.504C41.26 4.504 41.768 4.616 42.208 4.84C42.648 5.056 42.988 5.364 43.228 5.764C43.476 6.164 43.6 6.628 43.6 7.156V7.168C43.6 7.208 43.588 7.24 43.564 7.264C43.54 7.288 43.512 7.3 43.48 7.3L42.568 7.348C42.488 7.348 42.448 7.312 42.448 7.24V7.204C42.448 6.692 42.288 6.28 41.968 5.968C41.648 5.656 41.22 5.5 40.684 5.5C40.148 5.5 39.716 5.656 39.388 5.968C39.068 6.28 38.908 6.692 38.908 7.204V10.396C38.908 10.908 39.068 11.32 39.388 11.632C39.716 11.944 40.148 12.1 40.684 12.1C41.22 12.1 41.648 11.944 41.968 11.632C42.288 11.32 42.448 10.908 42.448 10.396V10.372C42.448 10.3 42.488 10.264 42.568 10.264L43.48 10.312C43.56 10.312 43.6 10.352 43.6 10.432C43.6 10.96 43.476 11.428 43.228 11.836C42.988 12.236 42.648 12.548 42.208 12.772C41.768 12.996 41.26 13.108 40.684 13.108ZM50.0611 13C49.9971 13 49.9531 12.972 49.9291 12.916L48.2491 9.328C48.2411 9.304 48.2251 9.292 48.2011 9.292H46.4731C46.4411 9.292 46.4251 9.308 46.4251 9.34V12.88C46.4251 12.96 46.3851 13 46.3051 13H45.3931C45.3131 13 45.2731 12.96 45.2731 12.88V4.72C45.2731 4.64 45.3131 4.6 45.3931 4.6H48.6211C49.1011 4.6 49.5211 4.7 49.8811 4.9C50.2491 5.1 50.5331 5.38 50.7331 5.74C50.9331 6.1 51.0331 6.516 51.0331 6.988C51.0331 7.548 50.8851 8.024 50.5891 8.416C50.3011 8.8 49.8971 9.06 49.3771 9.196C49.3451 9.212 49.3371 9.232 49.3531 9.256L51.0931 12.856C51.1011 12.872 51.1051 12.892 51.1051 12.916C51.1051 12.972 51.0731 13 51.0091 13H50.0611ZM46.4731 5.596C46.4411 5.596 46.4251 5.612 46.4251 5.644V8.332C46.4251 8.364 46.4411 8.38 46.4731 8.38H48.4771C48.9011 8.38 49.2411 8.256 49.4971 8.008C49.7531 7.752 49.8811 7.416 49.8811 7C49.8811 6.576 49.7531 6.236 49.4971 5.98C49.2411 5.724 48.9011 5.596 48.4771 5.596H46.4731ZM52.7524 13C52.6724 13 52.6324 12.96 52.6324 12.88V4.72C52.6324 4.64 52.6724 4.6 52.7524 4.6H55.6564C56.4884 4.6 57.1524 4.82 57.6484 5.26C58.1444 5.692 58.3924 6.272 58.3924 7V10.6C58.3924 11.328 58.1444 11.912 57.6484 12.352C57.1524 12.784 56.4884 13 55.6564 13H52.7524ZM53.7844 11.956C53.7844 11.988 53.8004 12.004 53.8324 12.004H55.7044C56.1684 12.004 56.5364 11.864 56.8084 11.584C57.0884 11.296 57.2324 10.912 57.2404 10.432V7.168C57.2404 6.688 57.1004 6.308 56.8204 6.028C56.5484 5.74 56.1764 5.596 55.7044 5.596H53.8324C53.8004 5.596 53.7844 5.612 53.7844 5.644V11.956Z" fill="#8A92A6"/>
</svg>
