<svg width="20" height="20" viewBox="0 0 20 20" fill="none" xmlns="http://www.w3.org/2000/svg">
<path d="M0.754994 12.7146L1.27199 14.6466C1.87599 16.9016 2.17899 18.0296 2.86399 18.7606C3.40464 19.3374 4.10408 19.7411 4.87399 19.9206C5.84999 20.1486 6.97799 19.8466 9.23399 19.2426C11.488 18.6386 12.616 18.3366 13.347 17.6516C13.407 17.5946 13.467 17.5356 13.523 17.4756C13.1824 17.4447 12.8439 17.3946 12.509 17.3256C11.813 17.1876 10.986 16.9656 10.008 16.7036L9.90099 16.6746L9.87599 16.6686C8.81199 16.3826 7.92299 16.1446 7.21299 15.8886C6.46599 15.6186 5.78799 15.2856 5.21099 14.7456C4.41731 14.002 3.86191 13.0398 3.61499 11.9806C3.43499 11.2116 3.48699 10.4576 3.62699 9.67663C3.76099 8.92763 4.00099 8.02963 4.28899 6.95463L4.82399 4.96062L4.84199 4.89062C2.92199 5.40763 1.91099 5.71362 1.23699 6.34462C0.659486 6.88568 0.255445 7.58588 0.0759934 8.35662C-0.152007 9.33162 0.149994 10.4596 0.754994 12.7146Z" fill="#3F4D70"/>
<path fill-rule="evenodd" clip-rule="evenodd" d="M18.83 8.71499L18.312 10.647L18.3096 10.6557C17.7062 12.9049 17.4041 14.0309 16.72 14.761C16.1795 15.3382 15.48 15.7422 14.71 15.922C14.613 15.945 14.515 15.962 14.415 15.974C13.5 16.087 12.383 15.788 10.351 15.244L10.3422 15.2416C8.09306 14.6382 6.96704 14.3361 6.23699 13.652C5.65966 13.1112 5.25563 12.4114 5.07599 11.641C4.84799 10.665 5.14999 9.53799 5.75499 7.28299L6.27199 5.35099L6.51599 4.44599C6.97099 2.77999 7.27699 1.86299 7.86399 1.23599C8.40464 0.659193 9.10408 0.255534 9.87399 0.0759934C10.85 -0.152007 11.978 0.149994 14.234 0.754994L14.2377 0.755989C16.4892 1.35933 17.6164 1.66137 18.347 2.34499C18.9245 2.88605 19.3285 3.58625 19.508 4.35699C19.7359 5.33273 19.4342 6.45938 18.8305 8.71316L18.83 8.71499ZM9.18154 7.54251C9.12154 7.62065 9.07752 7.70984 9.05199 7.80499C9.00067 7.99701 9.02766 8.20254 9.12703 8.37467C9.22641 8.54679 9.39004 8.67243 9.58199 8.72399L14.412 10.018C14.5081 10.0469 14.609 10.0562 14.7088 10.0454C14.8086 10.0346 14.9052 10.0038 14.9929 9.955C15.0805 9.90617 15.1575 9.84024 15.2193 9.76111C15.281 9.68198 15.3262 9.59127 15.3523 9.49434C15.3783 9.39742 15.3846 9.29625 15.3709 9.19684C15.3571 9.09743 15.3235 9.00179 15.2721 8.9156C15.2207 8.8294 15.1525 8.7544 15.0716 8.69503C14.9907 8.63567 14.8986 8.59315 14.801 8.56999L9.97099 7.27499C9.87585 7.24943 9.7766 7.24286 9.67892 7.25566C9.58124 7.26847 9.48704 7.30039 9.4017 7.34961C9.31635 7.39883 9.24154 7.46437 9.18154 7.54251ZM8.62532 10.248C8.4532 10.3474 8.32755 10.511 8.27599 10.703C8.25043 10.7981 8.24386 10.8974 8.25667 10.9951C8.26947 11.0927 8.30139 11.1869 8.35061 11.2723C8.39982 11.3576 8.46537 11.4324 8.54351 11.4924C8.62165 11.5524 8.71084 11.5965 8.80599 11.622L11.704 12.398C11.8003 12.4274 11.9015 12.4372 12.0017 12.4267C12.1018 12.4162 12.1988 12.3856 12.2869 12.3368C12.375 12.2879 12.4523 12.2219 12.5143 12.1425C12.5763 12.0632 12.6217 11.9722 12.6478 11.8749C12.6738 11.7776 12.68 11.6761 12.666 11.5764C12.652 11.4767 12.6181 11.3808 12.5662 11.2945C12.5143 11.2082 12.4456 11.1332 12.3641 11.074C12.2827 11.0148 12.1901 10.9726 12.092 10.95L9.19399 10.173C9.00198 10.1217 8.79745 10.1487 8.62532 10.248Z" fill="#3F4D70" fill-opacity="0.4"/>
</svg>
