<svg width="209" height="44" viewBox="0 0 209 44" fill="none" xmlns="http://www.w3.org/2000/svg">
<rect width="209" height="44" rx="8" fill="#E9ECEF"/>
<path d="M80.9329 28C80.8263 28 80.7729 27.9467 80.7729 27.84V16.96C80.7729 16.8533 80.8263 16.8 80.9329 16.8H82.1489C82.2556 16.8 82.3089 16.8533 82.3089 16.96V26.608C82.3089 26.6507 82.3303 26.672 82.3729 26.672H87.8929C87.9996 26.672 88.0529 26.7253 88.0529 26.832V27.84C88.0529 27.9467 87.9996 28 87.8929 28H80.9329ZM93.0339 28.128C92.2446 28.128 91.5566 27.9307 90.9699 27.536C90.3833 27.1307 89.9726 26.5707 89.7379 25.856C89.5459 25.28 89.4499 24.6293 89.4499 23.904C89.4499 23.1467 89.5406 22.5067 89.7219 21.984C89.9566 21.28 90.3673 20.7307 90.9539 20.336C91.5406 19.9307 92.2393 19.728 93.0499 19.728C93.8179 19.728 94.4846 19.9307 95.0499 20.336C95.6259 20.7307 96.0366 21.2747 96.2819 21.968C96.4739 22.512 96.5699 23.152 96.5699 23.888C96.5699 24.6347 96.4739 25.2907 96.2819 25.856C96.0473 26.5707 95.6419 27.1307 95.0659 27.536C94.4899 27.9307 93.8126 28.128 93.0339 28.128ZM93.0339 26.8C93.4606 26.8 93.8339 26.6827 94.1539 26.448C94.4739 26.2027 94.7033 25.8613 94.8419 25.424C94.9593 25.0187 95.0179 24.5173 95.0179 23.92C95.0179 23.3227 94.9646 22.8267 94.8579 22.432C94.7193 21.9947 94.4899 21.6587 94.1699 21.424C93.8499 21.1787 93.4606 21.056 93.0019 21.056C92.5646 21.056 92.1859 21.1787 91.8659 21.424C91.5459 21.6587 91.3166 21.9947 91.1779 22.432C91.0606 22.8053 91.0019 23.3013 91.0019 23.92C91.0019 24.5387 91.0606 25.04 91.1779 25.424C91.3059 25.8613 91.5299 26.2027 91.8499 26.448C92.1806 26.6827 92.5753 26.8 93.0339 26.8ZM103.589 20.016C103.589 19.9093 103.642 19.856 103.749 19.856H104.965C105.072 19.856 105.125 19.9093 105.125 20.016V27.584C105.125 28.8747 104.757 29.7973 104.021 30.352C103.296 30.9067 102.32 31.184 101.093 31.184C100.922 31.184 100.656 31.1733 100.293 31.152C100.186 31.1413 100.133 31.0827 100.133 30.976L100.181 29.872C100.181 29.8293 100.197 29.792 100.229 29.76C100.261 29.728 100.304 29.7173 100.357 29.728C100.506 29.7387 100.725 29.744 101.013 29.744C101.92 29.744 102.576 29.5733 102.981 29.232C103.386 28.9013 103.589 28.336 103.589 27.536V27.248C103.589 27.2267 103.578 27.2107 103.557 27.2C103.546 27.1893 103.53 27.1947 103.509 27.216C103.061 27.7387 102.405 28 101.541 28C100.848 28 100.218 27.8187 99.6529 27.456C99.0983 27.0933 98.7143 26.56 98.5009 25.856C98.3623 25.3867 98.2929 24.736 98.2929 23.904C98.2929 23.0187 98.3729 22.336 98.5329 21.856C98.7356 21.216 99.0929 20.704 99.6049 20.32C100.128 19.9253 100.741 19.728 101.445 19.728C102.32 19.728 103.008 19.9947 103.509 20.528C103.53 20.5493 103.546 20.56 103.557 20.56C103.578 20.5493 103.589 20.5333 103.589 20.512V20.016ZM103.493 25.392C103.525 25.2213 103.546 25.04 103.557 24.848C103.578 24.656 103.589 24.336 103.589 23.888C103.589 23.44 103.578 23.1253 103.557 22.944C103.546 22.752 103.52 22.5707 103.477 22.4C103.392 22.0053 103.2 21.6853 102.901 21.44C102.602 21.184 102.229 21.056 101.781 21.056C101.333 21.056 100.96 21.184 100.661 21.44C100.362 21.6853 100.149 22.0053 100.021 22.4C99.9036 22.72 99.8449 23.216 99.8449 23.888C99.8449 24.624 99.8983 25.1253 100.005 25.392C100.112 25.7867 100.32 26.112 100.629 26.368C100.949 26.6133 101.333 26.736 101.781 26.736C102.25 26.736 102.629 26.6133 102.917 26.368C103.216 26.112 103.408 25.7867 103.493 25.392ZM110.596 28.128C109.807 28.128 109.119 27.9307 108.532 27.536C107.946 27.1307 107.535 26.5707 107.3 25.856C107.108 25.28 107.012 24.6293 107.012 23.904C107.012 23.1467 107.103 22.5067 107.284 21.984C107.519 21.28 107.93 20.7307 108.516 20.336C109.103 19.9307 109.802 19.728 110.612 19.728C111.38 19.728 112.047 19.9307 112.612 20.336C113.188 20.7307 113.599 21.2747 113.844 21.968C114.036 22.512 114.132 23.152 114.132 23.888C114.132 24.6347 114.036 25.2907 113.844 25.856C113.61 26.5707 113.204 27.1307 112.628 27.536C112.052 27.9307 111.375 28.128 110.596 28.128ZM110.596 26.8C111.023 26.8 111.396 26.6827 111.716 26.448C112.036 26.2027 112.266 25.8613 112.404 25.424C112.522 25.0187 112.58 24.5173 112.58 23.92C112.58 23.3227 112.527 22.8267 112.42 22.432C112.282 21.9947 112.052 21.6587 111.732 21.424C111.412 21.1787 111.023 21.056 110.564 21.056C110.127 21.056 109.748 21.1787 109.428 21.424C109.108 21.6587 108.879 21.9947 108.74 22.432C108.623 22.8053 108.564 23.3013 108.564 23.92C108.564 24.5387 108.623 25.04 108.74 25.424C108.868 25.8613 109.092 26.2027 109.412 26.448C109.743 26.6827 110.138 26.8 110.596 26.8ZM120.991 20.016C120.991 19.9093 121.045 19.856 121.151 19.856H122.351C122.458 19.856 122.511 19.9093 122.511 20.016V27.84C122.511 27.9467 122.458 28 122.351 28H121.151C121.045 28 120.991 27.9467 120.991 27.84V27.248C120.991 27.2267 120.981 27.216 120.959 27.216C120.949 27.2053 120.933 27.2107 120.911 27.232C120.485 27.8187 119.829 28.112 118.943 28.112C118.421 28.112 117.935 28.0107 117.487 27.808C117.05 27.6053 116.698 27.3067 116.431 26.912C116.165 26.5173 116.031 26.0373 116.031 25.472V20.016C116.031 19.9093 116.085 19.856 116.191 19.856H117.391C117.498 19.856 117.551 19.9093 117.551 20.016V24.992C117.551 25.5467 117.695 25.984 117.983 26.304C118.282 26.624 118.698 26.784 119.231 26.784C119.765 26.784 120.191 26.624 120.511 26.304C120.831 25.9733 120.991 25.536 120.991 24.992V20.016ZM128.769 20.96C128.769 21.0667 128.715 21.12 128.609 21.12H126.881C126.838 21.12 126.817 21.1413 126.817 21.184V25.424C126.817 25.872 126.918 26.1973 127.121 26.4C127.323 26.592 127.638 26.688 128.065 26.688H128.529C128.635 26.688 128.689 26.7413 128.689 26.848V27.84C128.689 27.9467 128.635 28 128.529 28C128.187 28.0213 127.942 28.032 127.793 28.032C126.982 28.032 126.369 27.888 125.953 27.6C125.547 27.3013 125.345 26.7573 125.345 25.968V21.184C125.345 21.1413 125.323 21.12 125.281 21.12H124.305C124.198 21.12 124.145 21.0667 124.145 20.96V20.016C124.145 19.9093 124.198 19.856 124.305 19.856H125.281C125.323 19.856 125.345 19.8347 125.345 19.792V17.904C125.345 17.7973 125.398 17.744 125.505 17.744H126.657C126.763 17.744 126.817 17.7973 126.817 17.904V19.792C126.817 19.8347 126.838 19.856 126.881 19.856H128.609C128.715 19.856 128.769 19.9093 128.769 20.016V20.96Z" fill="#3F4D70"/>
<path d="M186.661 18.1529C186.466 18.234 186.298 18.3713 186.181 18.5475C186.063 18.7237 186 18.9309 186 19.1429V20.5714H179.214C178.835 20.5714 178.472 20.7219 178.204 20.9898C177.936 21.2578 177.786 21.6211 177.786 22C177.786 22.3789 177.936 22.7422 178.204 23.0102C178.472 23.2781 178.835 23.4286 179.214 23.4286H186V24.8571C186 25.0689 186.063 25.2759 186.181 25.4519C186.299 25.6279 186.466 25.7651 186.662 25.8461C186.857 25.9271 187.072 25.9484 187.28 25.9071C187.488 25.8658 187.679 25.7639 187.829 25.6143L190.686 22.7571C190.886 22.5562 190.999 22.2839 190.999 22C190.999 21.7161 190.886 21.4438 190.686 21.2429L187.829 18.3857C187.679 18.2359 187.488 18.1338 187.28 18.0923C187.073 18.0509 186.857 18.0719 186.661 18.1529Z" fill="#3F4D70"/>
<path d="M171 14.1429C171 13.5745 171.226 13.0295 171.628 12.6276C172.029 12.2258 172.575 12 173.143 12H183.143C183.711 12 184.256 12.2258 184.658 12.6276C185.06 13.0295 185.286 13.5745 185.286 14.1429V16.9129C184.706 17.3771 184.33 18.0489 184.237 18.7857H179.214C178.792 18.7857 178.374 18.8689 177.984 19.0304C177.594 19.1919 177.24 19.4287 176.941 19.7272C176.643 20.0256 176.406 20.38 176.245 20.7699C176.083 21.1599 176 21.5779 176 22C176 22.4221 176.083 22.8401 176.245 23.2301C176.406 23.62 176.643 23.9744 176.941 24.2728C177.24 24.5713 177.594 24.8081 177.984 24.9696C178.374 25.1311 178.792 25.2143 179.214 25.2143H184.237C184.33 25.9511 184.706 26.6229 185.286 27.0871V29.8571C185.286 30.4255 185.06 30.9705 184.658 31.3724C184.256 31.7742 183.711 32 183.143 32H173.143C172.575 32 172.029 31.7742 171.628 31.3724C171.226 30.9705 171 30.4255 171 29.8571V14.1429Z" fill="#3F4D70" fill-opacity="0.4"/>
</svg>
