<svg width="24" height="24" viewBox="0 0 24 24" fill="none" xmlns="http://www.w3.org/2000/svg">
<path d="M17.6614 8.15286C17.4656 8.23396 17.2983 8.3713 17.1805 8.54752C17.0628 8.72375 17 8.93092 17 9.14286V10.5714H10.2143C9.8354 10.5714 9.47204 10.7219 9.20413 10.9898C8.93622 11.2578 8.78571 11.6211 8.78571 12C8.78571 12.3789 8.93622 12.7422 9.20413 13.0102C9.47204 13.2781 9.8354 13.4286 10.2143 13.4286H17V14.8571C17.0002 15.0689 17.0631 15.2759 17.1809 15.4519C17.2986 15.6279 17.4659 15.7651 17.6615 15.8461C17.8572 15.9271 18.0725 15.9484 18.2802 15.9071C18.4879 15.8658 18.6787 15.7639 18.8286 15.6143L21.6857 12.7571C21.8864 12.5562 21.9991 12.2839 21.9991 12C21.9991 11.7161 21.8864 11.4438 21.6857 11.2429L18.8286 8.38571C18.6788 8.23587 18.488 8.13377 18.2803 8.09233C18.0726 8.05088 17.8572 8.07194 17.6614 8.15286Z" fill="#3F4D70"/>
<path d="M2 4.14286C2 3.57454 2.22576 3.02949 2.62763 2.62763C3.02949 2.22576 3.57454 2 4.14286 2H14.1429C14.7112 2 15.2562 2.22576 15.6581 2.62763C16.0599 3.02949 16.2857 3.57454 16.2857 4.14286V6.91286C15.7061 7.37714 15.33 8.04888 15.2371 8.78571H10.2143C9.79218 8.78571 9.37421 8.86885 8.98423 9.03039C8.59426 9.19192 8.23992 9.42868 7.94144 9.72716C7.64297 10.0256 7.40621 10.38 7.24467 10.7699C7.08314 11.1599 7 11.5779 7 12C7 12.4221 7.08314 12.8401 7.24467 13.2301C7.40621 13.62 7.64297 13.9744 7.94144 14.2728C8.23992 14.5713 8.59426 14.8081 8.98423 14.9696C9.37421 15.1311 9.79218 15.2143 10.2143 15.2143H15.2371C15.33 15.9511 15.7061 16.6229 16.2857 17.0871V19.8571C16.2857 20.4255 16.0599 20.9705 15.6581 21.3724C15.2562 21.7742 14.7112 22 14.1429 22H4.14286C3.57454 22 3.02949 21.7742 2.62763 21.3724C2.22576 20.9705 2 20.4255 2 19.8571V4.14286Z" fill="#3F4D70" fill-opacity="0.4"/>
</svg>
