<svg width="16" height="18" viewBox="0 0 16 18" fill="none" xmlns="http://www.w3.org/2000/svg">
<path d="M14.4744 8.7038C13.8657 7.99293 13.5891 7.37689 13.5891 6.33031V5.97446C13.5891 4.61063 13.2752 3.7319 12.5927 2.85318C11.5409 1.48851 9.77015 0.666016 8.03669 0.666016H7.96298C6.26596 0.666016 4.55072 1.45074 3.48067 2.76002C2.76095 3.65637 2.41061 4.57286 2.41061 5.97446V6.33031C2.41061 7.37689 2.15221 7.99293 1.52524 8.7038C1.06393 9.22751 0.916504 9.90061 0.916504 10.6291C0.916504 11.3584 1.15586 12.0492 1.63623 12.6106C2.26319 13.2837 3.14855 13.7135 4.05296 13.7882C5.36238 13.9375 6.67179 13.9938 8.00025 13.9938C9.32788 13.9938 10.6373 13.8998 11.9475 13.7882C12.8511 13.7135 13.7365 13.2837 14.3634 12.6106C14.843 12.0492 15.0832 11.3584 15.0832 10.6291C15.0832 9.90061 14.9357 9.22751 14.4744 8.7038Z" fill="#3F4D70"/>
<path opacity="0.4" d="M9.67397 15.0238C9.25737 14.9348 6.71888 14.9348 6.30229 15.0238C5.94616 15.106 5.56104 15.2974 5.56104 15.717C5.58174 16.1173 5.81613 16.4707 6.14079 16.6948L6.13996 16.6956C6.55987 17.0229 7.05266 17.2311 7.56864 17.3058C7.8436 17.3435 8.12354 17.3418 8.40845 17.3058C8.9236 17.2311 9.41639 17.0229 9.8363 16.6956L9.83547 16.6948C10.1601 16.4707 10.3945 16.1173 10.4152 15.717C10.4152 15.2974 10.0301 15.106 9.67397 15.0238Z" fill="#3F4D70"/>
</svg>
