<svg width="20" height="20" viewBox="0 0 20 20" fill="none" xmlns="http://www.w3.org/2000/svg">
<path d="M4.91813 14.4948C4.91813 14.662 4.94764 14.8194 4.96731 14.9866H0.983625C0.440664 14.9866 0 14.544 0 14.003C0 13.462 0.440664 13.0194 0.983625 13.0194H4.91813L4.91813 14.4948ZM2.95088 5.15039H4.96731C4.94764 5.31761 4.91813 5.47499 4.91813 5.6422V7.11764H2.95088C2.40988 7.11764 1.96725 6.67501 1.96725 6.13402C1.96725 5.59302 2.40988 5.15039 2.95088 5.15039ZM0.983625 10.0685C0.983625 9.52752 1.42626 9.08489 1.96725 9.08489H4.91813V11.0521H1.96725C1.42626 11.0521 0.983625 10.6095 0.983625 10.0685Z" fill="#12151E"/>
<path opacity="0.4" d="M19.9992 12.6526C19.9992 14.482 18.5304 15.964 16.7009 15.9705H16.6944L10.1962 15.9705C8.37336 15.9705 6.88489 14.4952 6.88489 12.6657V12.6592C6.88489 12.6592 6.88882 9.75697 6.89407 8.29734C6.89472 8.02326 7.20947 7.86982 7.42389 8.0403C8.98186 9.27633 11.768 11.53 11.8027 11.5595C12.2683 11.9326 12.8584 12.1431 13.4617 12.1431C14.065 12.1431 14.6551 11.9326 15.1207 11.5523C15.1554 11.5294 17.8793 9.34321 19.4608 8.08686C19.6759 7.91572 19.992 8.06916 19.9926 8.34259C19.9992 9.79106 19.9992 12.6526 19.9992 12.6526Z" fill="#3F4D70"/>
<path d="M19.6597 5.9194C19.0919 4.84927 17.9745 4.16602 16.7444 4.16602L10.2004 4.16602C8.97026 4.16602 7.85292 4.84927 7.28507 5.9194C7.15786 6.15873 7.21819 6.45708 7.42998 6.62626L12.2987 10.5205C12.6396 10.7959 13.0527 10.933 13.4658 10.933C13.4685 10.933 13.4704 10.933 13.4724 10.933C13.4744 10.933 13.477 10.933 13.479 10.933C13.8921 10.933 14.3052 10.7959 14.6461 10.5205L19.5148 6.62626C19.7266 6.45708 19.7869 6.15873 19.6597 5.9194Z" fill="#3F4D70"/>
</svg>
