<svg width="24" height="24" viewBox="0 0 24 24" fill="none" xmlns="http://www.w3.org/2000/svg">
<path d="M2.75499 14.7156L3.27199 16.6476C3.87599 18.9026 4.17899 20.0306 4.86399 20.7616C5.40464 21.3384 6.10408 21.7421 6.87399 21.9216C7.84999 22.1496 8.97799 21.8476 11.234 21.2436C13.488 20.6396 14.616 20.3376 15.347 19.6526C15.407 19.5956 15.467 19.5366 15.523 19.4766C15.1824 19.4457 14.8439 19.3956 14.509 19.3266C13.813 19.1886 12.986 18.9666 12.008 18.7046L11.901 18.6756L11.876 18.6696C10.812 18.3836 9.92299 18.1456 9.21299 17.8896C8.46599 17.6196 7.78799 17.2866 7.21099 16.7466C6.41731 16.003 5.86191 15.0408 5.61499 13.9816C5.43499 13.2126 5.48699 12.4586 5.62699 11.6776C5.76099 10.9286 6.00099 10.0306 6.28899 8.9556L6.82399 6.9616L6.84199 6.8916C4.92199 7.4086 3.91099 7.7146 3.23699 8.3456C2.65949 8.88666 2.25545 9.58685 2.07599 10.3576C1.84799 11.3326 2.14999 12.4606 2.75499 14.7156Z" fill="#008AC0"/>
<path fill-rule="evenodd" clip-rule="evenodd" d="M20.83 10.715L20.312 12.647L20.3096 12.6557C19.7062 14.9049 19.4041 16.0309 18.72 16.761C18.1795 17.3382 17.48 17.7422 16.71 17.922C16.613 17.945 16.515 17.962 16.415 17.974C15.5 18.087 14.383 17.788 12.351 17.244L12.3422 17.2416C10.0931 16.6382 8.96704 16.3361 8.23699 15.652C7.65966 15.1112 7.25563 14.4114 7.07599 13.641C6.84799 12.665 7.14999 11.538 7.75499 9.28299L8.27199 7.35099L8.51599 6.44599C8.97099 4.77999 9.27699 3.86299 9.86399 3.23599C10.4046 2.65919 11.1041 2.25553 11.874 2.07599C12.85 1.84799 13.978 2.14999 16.234 2.75499L16.2377 2.75599C18.4892 3.35933 19.6164 3.66137 20.347 4.34499C20.9245 4.88605 21.3285 5.58625 21.508 6.35699C21.7359 7.33273 21.4342 8.45938 20.8305 10.7132L20.83 10.715ZM11.1815 9.54251C11.1215 9.62065 11.0775 9.70984 11.052 9.80499C11.0007 9.99701 11.0277 10.2025 11.127 10.3747C11.2264 10.5468 11.39 10.6724 11.582 10.724L16.412 12.018C16.5081 12.0469 16.609 12.0562 16.7088 12.0454C16.8086 12.0346 16.9052 12.0038 16.9929 11.955C17.0805 11.9062 17.1575 11.8402 17.2193 11.7611C17.281 11.682 17.3262 11.5913 17.3523 11.4943C17.3783 11.3974 17.3846 11.2963 17.3709 11.1968C17.3571 11.0974 17.3235 11.0018 17.2721 10.9156C17.2207 10.8294 17.1525 10.7544 17.0716 10.695C16.9907 10.6357 16.8986 10.5931 16.801 10.57L11.971 9.27499C11.8759 9.24943 11.7766 9.24286 11.6789 9.25566C11.5812 9.26847 11.487 9.30039 11.4017 9.34961C11.3164 9.39883 11.2415 9.46437 11.1815 9.54251ZM10.6253 12.248C10.4532 12.3474 10.3276 12.511 10.276 12.703C10.2504 12.7981 10.2439 12.8974 10.2567 12.9951C10.2695 13.0927 10.3014 13.1869 10.3506 13.2723C10.3998 13.3576 10.4654 13.4324 10.5435 13.4924C10.6216 13.5524 10.7108 13.5965 10.806 13.622L13.704 14.398C13.8003 14.4274 13.9015 14.4372 14.0017 14.4267C14.1018 14.4162 14.1988 14.3856 14.2869 14.3368C14.375 14.2879 14.4523 14.2219 14.5143 14.1425C14.5763 14.0632 14.6217 13.9722 14.6478 13.8749C14.6738 13.7776 14.68 13.6761 14.666 13.5764C14.652 13.4767 14.6181 13.3808 14.5662 13.2945C14.5143 13.2082 14.4456 13.1332 14.3641 13.074C14.2827 13.0148 14.1901 12.9726 14.092 12.95L11.194 12.173C11.002 12.1217 10.7974 12.1487 10.6253 12.248Z" fill="#008AC0" fill-opacity="0.4"/>
</svg>
