<svg width="18" height="20" viewBox="0 0 18 20" fill="none" xmlns="http://www.w3.org/2000/svg">
<path d="M9 13.5C9 15.78 10.7 18.41 11.91 20H2C0.89 20 0 19.11 0 18V2C0 1.46957 0.210714 0.960859 0.585786 0.585786C0.960859 0.210714 1.46957 0 2 0H3V7L5.5 5.5L8 7V0H14C14.5304 0 15.0391 0.210714 15.4142 0.585786C15.7893 0.960859 16 1.46957 16 2V8.22C15.5 8.08 15 8 14.5 8C11.5 8 9 10.5 9 13.5Z" fill="#3F4D70" fill-opacity="0.4"/>
<path fill-rule="evenodd" clip-rule="evenodd" d="M18 13.5C18 16.1 14.5 20 14.5 20C14.5 20 11 16.1 11 13.5C11 11.6 12.6 10 14.5 10C16.4 10 18 11.6 18 13.5ZM14.5 12.4C15.1 12.4 15.7 13 15.7 13.6C15.8 14.2 15.2 14.8 14.5 14.8C13.8 14.8 13.3 14.2 13.3 13.6C13.3 12.9 13.9 12.4 14.5 12.4Z" fill="#3F4D70"/>
</svg>
